<svg width="294" height="236" viewBox="0 0 294 236" fill="none" xmlns="http://www.w3.org/2000/svg">
<path d="M179.822 143.421C179.94 143.238 179.716 143.024 179.538 143.153C170.646 149.572 163.471 158.954 162.607 168.789C162.554 169.372 162.947 170.056 163.436 169.276C166.615 164.19 173.272 153.519 179.822 143.421ZM293.958 133.883C294.039 133.987 293.999 134.144 293.871 134.191C274.601 141.394 258.949 150.1 248.52 150.1C241.899 150.1 240.149 144.428 243.363 139.608C243.754 139.022 243.262 138.718 242.73 139.218C237.41 144.195 231.139 149.585 228.187 147.757C226.87 146.94 228.658 143.647 229.162 142.802C229.602 142.064 229.357 141.936 228.825 142.291C225.353 144.978 220.552 149.213 218.037 147.237C217.128 146.521 217.128 145.349 217.453 143.854C217.778 142.357 217.035 142.786 216.477 143.301C214.037 145.547 210.286 149.705 207.498 147.335C205.773 145.87 207.01 143.594 208.67 141.804C210.173 140.184 209.539 140.011 208.341 140.723C202.595 144.358 196.902 150.54 195.348 150.54C193.974 150.54 192.906 148.636 193.201 147.416C193.723 145.24 196.473 142.916 198.803 142.45C198.841 142.443 198.876 142.425 198.904 142.398C199.249 142.041 201.696 139.476 203.008 136.534C203.417 135.616 203.204 134.729 201.982 134.729C197.176 134.729 191.762 136.264 186.519 138.904C186.487 138.92 186.459 138.943 186.442 138.972C174.304 157.23 165.04 174.838 163.142 174.838C160.702 174.838 160.215 171.326 160.215 168.495C160.215 158.744 170.883 146.553 182.533 139.231C182.556 139.216 182.577 139.196 182.592 139.173C186.708 132.907 190.573 127.232 193.249 123.751C193.621 123.267 193.2 122.579 192.517 122.872C184.967 126.107 172.803 130.484 165.145 133.51C164.425 133.793 164.068 134.324 164.851 134.421C169.615 135.017 172.788 138.357 172.495 140.568C172.084 143.677 167.045 147.39 163.874 147.366C160.703 147.34 160.092 144.928 160.117 143.39C160.127 142.778 159.51 142.523 159.138 142.972V142.969C153.722 148.523 150.376 148.154 148.422 146.358C146.438 144.537 149.79 140.568 149.105 140.178C148.112 139.61 142.985 143.207 140.193 146.26C138.793 147.791 137.152 148.371 136.126 147.302C135.415 146.559 134.794 145.088 135.803 143.723C137.476 141.456 140.68 137.608 140.388 137.153C139.195 135.297 128.776 141.901 124.969 146.943C123.65 148.69 122.595 148.244 121.944 147.496C121.08 146.503 121.066 144.634 121.944 143.528C123.653 141.374 125.289 138.404 126.865 135.627C126.964 135.453 126.774 135.264 126.6 135.357C114.608 141.669 109.629 151.504 103.825 146.683C102.697 145.746 102.076 144.207 102.205 142.385C102.217 142.207 102.012 142.102 101.88 142.221C98.408 145.341 94.7773 149.826 92.3743 148.441C89.8721 146.998 90.0319 144.437 91.1728 142.131C91.2616 141.947 91.0496 141.762 90.8824 141.88C85.1674 145.87 80.8128 150.32 77.996 148.473C76.2899 147.355 76.2387 145.154 77.1498 143.561C78.7107 140.828 80.794 137.737 83.3955 135.266C84.715 134.012 86.4013 133.056 87.7209 134.095C90.1625 136.014 82.5502 140.925 80.8587 143.593C80.5213 144.127 80.6644 144.797 81.4449 144.57C89.4845 142.223 97.4499 133.347 98.783 134.68C100.799 136.697 92.0494 141.771 93.7409 144.504C94.5287 145.779 99.2333 142.183 103.152 139.103C103.175 139.086 103.192 139.065 103.205 139.041C103.817 137.862 104.724 136.648 105.971 135.46C111.231 130.458 114.006 130.938 115.146 131.882C116.495 133 117.652 135.195 116.61 134.908C110.819 133.313 102.735 142.264 105.034 144.557C106.277 145.796 107.858 145.557 108.934 144.745C113.877 140.998 121.822 135.877 128.948 132.059C128.977 132.044 129.002 132.021 129.019 131.994C129.177 131.747 129.336 131.507 129.491 131.278C129.947 130.605 130.98 130.798 132.059 131.622C134.531 133.509 131.67 135.947 130.238 137.933C129.995 138.271 130.076 139.072 130.759 138.551C133.81 136.228 139.868 133.184 142.046 134.68C144.227 136.175 143.511 138.421 142.502 140.112C142.219 140.588 142.73 140.86 143.122 140.567C147.043 137.625 151.189 135.947 152.198 137.153C153.204 138.356 153.434 140.731 151.386 143.204C151.134 143.505 151.223 144.016 151.579 143.985C154.877 143.684 158.311 141.238 161.801 138.6L161.812 138.591L162.608 137.902C164.352 136.5 164.803 139.342 164.803 140.025C164.803 141.098 162.251 141.538 162.251 142.927C162.251 143.464 162.754 143.71 163.243 143.71C165.293 143.71 169.416 141.611 169.416 139.415C169.416 135.535 159.486 136.706 159.486 134.193C159.486 132.924 160.167 133.023 161.486 132.632C169.464 130.269 192.714 119.361 195.691 119.361C196.911 119.361 198.816 121.801 197.449 123.556C194.491 127.358 191.611 131.367 188.855 135.395C188.743 135.561 188.917 135.769 189.1 135.687C193.179 133.854 197.158 132.778 200.621 132.778C205.618 132.778 206.896 135.965 204.441 140.344C204.336 140.533 204.561 140.731 204.731 140.601C206.537 139.226 208.763 137.372 210.283 136.781C211.6 136.145 213.486 138.292 213.422 139.399C213.356 140.505 209.972 142.781 211.341 143.692C211.633 143.888 212.209 143.548 213.097 142.781C214.755 141.35 217.422 139.105 219.05 137.935C220.676 136.763 221.945 136.016 223.181 137.316C224.415 138.618 224.157 139.691 222.757 140.993C221.359 142.294 220.026 143.182 220.806 143.747C221.587 144.311 227.176 141.482 231.6 137.81C231.603 137.807 231.608 137.803 231.613 137.8C233.17 136.274 234.048 136.017 235.119 136.991C236.194 137.967 235.329 138.823 234.631 139.433C233.136 140.733 231.411 142.653 232.028 143.139C232.648 143.627 235.867 141.253 239.481 138.26C243.09 135.268 247.536 131.253 249.727 134.031C251.061 135.721 250.963 137.185 248.36 139.463C245.758 141.74 243.305 143.853 244.196 144.896C247.086 148.27 273.259 141.347 293.475 133.497C293.557 133.466 293.648 133.49 293.701 133.558L293.962 133.883H293.958ZM162.638 123.262C155.548 124.627 141.755 126.418 134.858 126.613C133.224 126.658 134.039 131.102 137.785 131.102C142.763 131.102 157.827 125.798 163.29 124.563C164.298 124.335 163.573 123.082 162.638 123.263V123.262ZM136.994 110.017C137.11 109.838 136.898 109.627 136.719 109.744C130.903 113.537 126.327 117.87 126.327 119.943C126.327 120.213 126.473 120.431 126.766 120.431C128.285 120.431 134.088 114.538 136.994 110.017ZM177.351 102.627C177.28 102.604 177.201 102.625 177.15 102.679C175.705 104.242 173.854 106.862 175.512 106.936C177.708 107.033 180.685 105.862 180.685 104.642C180.685 103.559 179.355 103.204 177.35 102.627H177.351ZM200.839 107.764C200.843 107.912 201.001 108.004 201.13 107.936C208.675 103.981 216.258 97.9682 216.258 95.6624C216.258 94.7848 215.623 94.2467 214.989 94.2467C211.475 94.2467 200.837 102.982 200.837 107.666C200.837 107.699 200.839 107.732 200.839 107.763V107.764ZM116.602 109.016C116.602 105.942 126.262 95.4649 129.579 95.4649C133.484 95.4649 134.77 99.1321 134.281 99.5939C133.725 100.123 133.548 99.1217 131.598 99.2397C129.017 99.3943 121.824 105.978 121.824 107.125C121.824 107.443 121.981 107.674 122.373 107.674C125.839 107.674 132.54 101.386 135.565 101.386C138.018 101.386 139.957 102.98 140.602 104.962C140.642 105.076 140.769 105.134 140.878 105.08C143.888 103.586 146.893 102.321 149.515 101.432C149.558 101.418 149.593 101.388 149.619 101.35C150.265 100.326 150.783 99.4278 150.98 98.9075C151.561 97.3884 153.649 96.9391 154.793 97.661C156.725 98.8814 152.041 104.185 150.51 106.516C150.401 106.682 150.573 106.884 150.754 106.804C154.812 105.051 160.185 100.013 161.623 98.3297C163.125 96.5703 164.777 96.8273 165.948 97.9264C167.122 99.0266 166.132 100.604 164.959 101.703C163.785 102.803 161.466 107.363 162.233 108.025C164.036 109.583 169.94 104.879 174.288 101.246C174.302 101.233 174.315 101.221 174.323 101.207C174.608 100.804 174.9 100.43 175.185 100.103C176.15 98.9921 177.299 98.5251 178.145 98.8991C178.308 98.9702 178.425 99.0517 178.506 99.1425C178.565 99.2084 178.664 99.2188 178.742 99.176C181.665 97.5002 185.852 95.9037 191.027 95.9037C193.908 95.9037 195.566 96.9318 195.566 98.687C195.566 102.493 188.833 107.712 188.833 110.152C188.833 110.981 188.833 111.637 190.052 111.637C192.069 111.637 194.707 110.867 197.531 109.657C197.606 109.624 197.654 109.542 197.647 109.459C197.626 109.198 197.615 108.941 197.615 108.691C197.615 102.786 209.082 92.248 215.207 92.248C217.109 92.248 218.841 93.7588 218.841 95.9392C218.841 99.2794 210.603 106.709 202.257 111.29C202.145 111.353 202.118 111.504 202.207 111.596C207.621 117.272 227.83 109.026 239.398 103.602C239.529 103.539 239.678 103.636 239.678 103.78C239.678 103.832 239.657 103.882 239.624 103.918C231.805 112.18 217.943 117.523 208.887 117.523C203.246 117.523 200.265 115.581 198.816 113.196C198.766 113.112 198.659 113.078 198.567 113.118C195.681 114.381 192.93 115.166 190.67 115.166C187.387 115.166 184.782 113.862 184.782 110.349C184.782 106.835 194.608 100.396 193.241 98.6849C191.742 96.8095 182.943 98.8646 179.094 101.08C178.94 101.168 178.976 101.401 179.148 101.441C179.861 101.611 180.786 101.893 181.333 102.154C184.004 103.425 184.407 105.729 182.391 107.713C180.373 109.697 175.965 111.421 173.462 108.982C172.375 107.925 172.195 106.534 172.493 105.116C172.534 104.93 172.318 104.801 172.176 104.923C168.375 108.176 161.775 112.881 159.702 111.29C157.818 109.843 158.765 106.348 159.642 103.897C159.712 103.701 159.471 103.542 159.32 103.685C155.105 107.67 148.725 112.888 147.015 111.667C145.746 110.762 144.52 108.367 145.806 106.79C146.195 106.309 146.776 105.531 147.407 104.638C147.522 104.48 147.36 104.271 147.177 104.339C145.1 105.107 142.949 106.12 140.854 107.268C140.801 107.297 140.762 107.349 140.753 107.412C139.837 113.564 131.25 123.85 126.912 123.85C125.058 123.85 123.595 121.622 123.595 120.061C123.595 115.89 130.843 110.398 138.666 106.221C138.67 106.176 138.673 106.131 138.673 106.087C138.673 105.111 137.793 104.526 136.671 104.526C131.985 104.526 125.644 112.191 121.155 112.191C118.079 112.191 116.602 110.485 116.602 109.019V109.016ZM110.426 99.4476C107.738 101.971 105.919 104.56 104.586 107.875C104.516 108.042 104.688 108.207 104.851 108.129C109.364 105.966 112.917 102.765 115.188 99.1624C115.235 99.0872 115.228 98.9879 115.167 98.9242C114.133 97.8042 112.262 97.7467 110.385 98.4822C110.281 98.524 110.233 98.6473 110.281 98.7497C110.352 98.9012 110.418 99.0642 110.477 99.2397C110.502 99.3129 110.48 99.3943 110.425 99.4466L110.426 99.4476ZM94.4681 92.7339C94.5882 92.5709 94.4158 92.3546 94.2299 92.433C70.4005 102.626 57.1725 119.962 55.9135 119.962C54.1593 119.962 52.5963 118.449 52.5963 117.085C52.5963 114.805 72.1912 90.8961 85.5101 69.826C85.6073 69.6692 85.46 69.477 85.2844 69.5303C53.6819 79.2614 17.151 104.636 6.54962 122.66C5.89977 123.766 3.55737 125.196 1.60467 124.256C-0.191315 123.389 -0.484899 121.055 0.750034 119.34C17.7789 95.6749 59.0876 72.6782 87.7773 65.0659C88.9736 64.7483 91.364 66.2862 91.364 68.0916C91.364 71.3931 74.1836 91.4958 65.466 104.709C65.3458 104.893 65.5736 105.107 65.7512 104.975C75.5314 97.6569 94.4482 87.0241 98.6106 87.0241C100.61 87.0241 102.173 88.7313 102.173 89.7071C102.173 91.0424 93.8224 99.4696 87.7062 109.65C87.5986 109.826 87.8034 110.029 87.9789 109.917C94.8014 105.662 102.985 100.413 107.294 97.2003C107.328 97.1752 107.368 97.1616 107.41 97.1606C107.894 97.1522 108.328 97.2024 108.714 97.3236C108.773 97.3424 108.836 97.334 108.886 97.2975C110.163 96.3801 111.724 95.7815 112.988 95.7815C115.916 95.7815 118.713 97.2107 118.713 100.011C118.713 102.809 106.938 113.282 102.383 113.282C100.692 113.282 99.5196 111.135 99.5196 109.768C99.5196 108.951 100.617 106.433 102.517 103.445C102.637 103.255 102.402 103.042 102.229 103.184C95.1388 108.985 86.115 116.789 83.9241 116.789C82.1658 116.789 81.0938 114.739 81.0938 113.276C81.0938 111.844 88.0897 101.317 94.4681 92.7318V92.7339ZM256.486 164.694H254.637V233.904H22.5797V123.846H20.7315V235.752H256.486V164.694ZM256.486 123.283H254.637V1.84613H22.5797V82.4354H20.7315V0H256.486V123.283Z" fill="#2B2A29"/>
</svg>
