<svg width="306" height="114" viewBox="0 0 306 114" fill="none" xmlns="http://www.w3.org/2000/svg">
<path d="M168.856 60.4571C161.494 61.8744 147.175 63.7332 140.012 63.9357C138.315 63.9821 139.162 68.5959 143.052 68.5959C148.22 68.5959 163.857 63.0892 169.53 61.808C170.579 61.5723 169.825 60.2712 168.856 60.4571Z" fill="#252523"/>
<path d="M84.194 50.091C84.194 51.6112 85.3092 53.7388 87.1315 53.7388C89.5147 53.7388 99.675 44.8532 107.167 38.7756C104.747 42.3505 103.326 45.5038 103.326 46.4497C103.326 47.8671 104.541 50.0976 106.297 50.0976C111.027 50.0976 123.252 39.2237 123.252 36.3194C123.252 33.415 120.347 31.928 117.307 31.928C115.966 31.928 114.303 32.5753 112.965 33.5644C112.524 33.4051 112.019 33.3453 111.448 33.3652C106.838 36.8106 97.8726 42.5463 90.6267 47.0538C97.0096 36.1634 106.078 27.0421 106.078 25.6247C106.078 24.6124 104.458 22.8399 102.38 22.8399C97.9224 22.8399 77.1505 34.5934 67.3222 42.1911C76.1381 28.5125 94.8554 6.69501 94.8554 3.18324C94.8554 1.30786 92.3726 -0.285381 91.1312 0.043225C61.3442 7.94637 18.4561 31.8218 0.777734 56.3909C-0.503499 58.17 -0.198128 60.5931 1.66729 61.4926C3.69536 62.4685 6.12505 60.9848 6.80218 59.8363C17.8686 41.0261 56.1462 14.4953 89.0733 4.51426C75.2419 26.501 54.6061 51.6643 54.6061 54.0442C54.6061 55.4615 56.2259 57.0348 58.0515 57.0348C59.3692 57.0348 73.3499 38.696 98.5298 28.1573C91.7917 37.1757 84.194 48.5741 84.194 50.0943V50.091ZM114.741 35.6422C114.645 35.3302 114.529 35.0547 114.396 34.8158C116.474 33.9361 118.581 33.9859 119.67 35.3037C117.237 39.2204 113.35 42.6923 108.388 44.9627C109.805 41.2485 111.767 38.4105 114.738 35.6422H114.741Z" fill="#252523"/>
<path d="M125.785 48.9588C130.445 48.9588 137.03 41.0026 141.893 41.0026C143.058 41.0026 143.971 41.61 143.971 42.6224C143.971 42.6655 143.968 42.7153 143.964 42.7618C135.842 47.0967 128.317 52.7992 128.317 57.1309C128.317 58.7507 129.837 61.0642 131.763 61.0642C136.29 61.0642 145.275 50.2733 146.148 43.9003C148.561 42.5759 151.044 41.4208 153.417 40.591C152.617 41.7361 151.861 42.7651 151.379 43.3593C150.048 44.9957 151.32 47.4818 152.637 48.4211C154.503 49.7521 161.712 43.7144 166.051 39.5255C165.098 42.0382 163.631 46.3566 165.808 48.0295C168.052 49.7521 175.411 44.365 179.251 40.9959C178.747 42.6788 178.81 44.3849 180.094 45.6363C182.693 48.1689 187.271 46.3798 189.365 44.3185C191.459 42.2573 191.038 39.8674 188.266 38.5463C187.556 38.2078 186.242 37.836 185.498 37.7032C189.212 35.3067 199.014 32.9235 200.627 34.9449C202.045 36.7207 191.844 43.4057 191.844 47.0536C191.844 50.7015 194.546 52.0557 197.959 52.0557C200.348 52.0557 203.266 51.2126 206.323 49.8584C207.793 52.4042 210.894 54.5053 216.872 54.5053C226.295 54.5053 240.734 48.9323 248.839 40.3221V39.9172C236.757 45.6064 215.159 54.4788 209.765 48.1622C218.505 43.4157 227.208 35.5955 227.208 32.1003C227.208 29.8366 225.409 28.2666 223.434 28.2666C217.074 28.2666 205.171 39.2102 205.171 45.3375C205.171 45.6462 205.188 45.9616 205.218 46.2802C202.237 47.5714 199.446 48.3946 197.321 48.3946C196.053 48.3946 196.053 47.7141 196.053 46.8511C196.053 44.3185 203.044 38.9015 203.044 34.9483C203.044 33.126 201.321 32.0572 198.334 32.0572C192.867 32.0572 188.465 33.7732 185.422 35.5457C185.345 35.4063 185.203 35.2769 184.957 35.1673C184.077 34.779 182.886 35.2636 181.883 36.4154C181.585 36.7606 181.273 37.1556 180.974 37.5838C176.456 41.3611 170.309 46.2603 168.434 44.6372C167.64 43.9501 170.047 39.2168 171.265 38.075C172.483 36.9332 173.509 35.2968 172.294 34.155C171.076 33.0131 169.363 32.7476 167.803 34.5732C166.243 36.4021 160.209 42.0415 155.943 43.6016C157.009 41.5835 162.881 35.247 160.71 33.8761C159.522 33.126 157.354 33.594 156.75 35.1707C156.541 35.7217 155.987 36.6809 155.296 37.7696C152.495 38.7156 149.268 40.0765 146.045 41.6897C145.455 39.5255 143.387 37.7464 140.745 37.7464C137.604 37.7464 130.647 44.2754 127.049 44.2754C126.644 44.2754 126.478 44.0331 126.478 43.7045C126.478 42.5128 133.947 35.6785 136.625 35.5159C138.65 35.393 138.836 36.432 139.41 35.8843C139.918 35.403 138.584 31.5958 134.531 31.5958C131.085 31.5958 121.055 42.473 121.055 45.6661C121.055 47.1864 122.592 48.9555 125.785 48.9555V48.9588ZM208.514 44.2654C208.514 39.4027 219.557 30.3345 223.205 30.3345C223.862 30.3345 224.523 30.8921 224.523 31.8049C224.523 34.228 216.457 40.5943 208.527 44.6969C208.52 44.5542 208.514 44.4148 208.514 44.2687V44.2654ZM187.592 41.1254C187.592 42.3934 184.502 43.6082 182.222 43.5053C180.466 43.4256 182.497 40.6043 184.008 38.9944C186.159 39.6151 187.592 39.9769 187.592 41.1221V41.1254ZM131.613 57.5192C131.311 57.5192 131.159 57.2902 131.159 57.0147C131.159 54.7742 136.313 49.9812 142.71 45.935C139.905 50.6981 133.28 57.5192 131.613 57.5192Z" fill="#252523"/>
<path d="M304.829 71.0291C283.821 79.2011 256.534 86.4305 253.527 82.9187C252.6 81.8366 255.146 79.6426 257.848 77.2793C260.55 74.916 260.653 73.3958 259.266 71.6399C256.992 68.7554 252.375 72.9244 248.627 76.0313C244.88 79.1381 241.534 81.6043 240.893 81.0964C240.253 80.5886 242.042 78.597 243.595 77.2461C244.319 76.6154 245.215 75.7259 244.103 74.7135C242.988 73.7011 242.075 73.97 240.455 75.5566C235.861 79.3737 230.053 82.3113 229.243 81.7271C228.433 81.1429 229.817 80.2168 231.271 78.8659C232.721 77.515 232.994 76.3997 231.709 75.0488C230.425 73.6978 229.11 74.4745 227.421 75.6894C225.731 76.9042 222.963 79.2343 221.24 80.7214C220.317 81.518 219.72 81.8698 219.415 81.6674C217.994 80.7214 221.509 78.3581 221.575 77.2096C221.642 76.0611 219.683 73.8339 218.316 74.4911C216.494 75.2014 213.689 77.6643 211.714 79.0816C214.957 74.0828 213.808 70.3387 208.285 70.3387C204.501 70.3387 200.123 71.5768 195.655 73.6679C198.643 69.2799 201.773 64.9051 204.992 60.766C206.41 58.9437 204.435 56.4111 203.17 56.4111C200.08 56.4111 175.939 67.7364 167.657 70.1894C166.29 70.5943 165.58 70.4914 165.58 71.8092C165.58 74.4181 175.889 73.2032 175.889 77.2295C175.889 79.5098 171.607 81.6873 169.48 81.6873C168.972 81.6873 168.451 81.435 168.451 80.8774C168.451 79.4335 171.103 78.9788 171.103 77.8635C171.103 77.1532 170.631 74.2057 168.822 75.6595L167.989 76.3798C164.365 79.1215 160.8 81.6607 157.371 81.976C156.999 82.0092 156.91 81.4782 157.169 81.1661C159.296 78.6004 159.061 76.1342 158.012 74.8828C156.966 73.6348 152.661 75.374 148.588 78.4278C148.183 78.7331 147.652 78.4477 147.948 77.9564C148.993 76.2005 149.737 73.8704 147.476 72.317C145.213 70.7636 138.923 73.9235 135.756 76.3366C135.046 76.8777 134.963 76.0445 135.215 75.696C136.702 73.6348 139.673 71.1022 137.107 69.1438C135.985 68.2874 134.913 68.0883 134.438 68.7853C134.266 69.0376 134.093 69.3031 133.921 69.572C126.509 73.5385 118.237 78.8692 113.092 82.766C111.977 83.6091 110.337 83.8581 109.046 82.5702C106.659 80.1903 115.051 70.8964 121.062 72.5527C122.144 72.8514 120.942 70.5744 119.541 69.4127C118.36 68.4335 115.475 67.9356 110.019 73.1269C108.707 74.3716 107.761 75.6462 107.124 76.8843C103.048 80.0874 98.1389 83.8448 97.3191 82.5171C95.5632 79.6791 104.648 74.4115 102.554 72.317C101.169 70.9329 92.9011 80.1471 84.5532 82.5835C83.7433 82.8191 83.5939 82.1254 83.9458 81.5711C85.7017 78.8028 93.6048 73.7011 91.0722 71.7096C89.7014 70.6308 87.9488 71.6233 86.5813 72.9244C83.8794 75.4902 81.7186 78.6999 80.0954 81.5379C79.1495 83.1942 79.2026 85.4779 80.9751 86.6363C84.0155 88.6278 88.7753 83.5626 95.0587 79.3074C93.5384 81.8731 93.0339 84.9468 95.9051 86.6031C98.4908 88.0934 102.447 83.0382 106.168 79.7953C105.866 81.913 106.517 83.7153 107.795 84.7775C113.919 89.8626 119.16 79.2343 132.058 72.6987C130.316 75.7491 128.507 79.1115 126.608 81.5014C125.695 82.6499 125.712 84.5916 126.608 85.6206C127.285 86.3973 128.381 86.8587 129.748 85.0464C133.698 79.8119 144.519 72.9543 145.757 74.8795C146.062 75.3508 142.733 79.3472 140.994 81.7005C139.945 83.1179 140.592 84.6447 141.332 85.4148C142.395 86.5234 144.101 85.9226 145.554 84.3327C148.456 81.1628 153.776 77.4287 154.809 78.0162C155.519 78.4211 152.04 82.5403 154.098 84.4323C156.126 86.2944 159.602 86.6794 165.224 80.9139V80.9172C165.613 80.4492 166.253 80.7147 166.24 81.352C166.217 82.9486 166.848 85.4513 170.14 85.4779C173.433 85.5044 178.664 81.6508 179.089 78.4211C179.391 76.1242 176.098 72.6556 171.153 72.0382C170.343 71.9386 170.711 71.3876 171.458 71.0922C179.411 67.9522 192.037 63.4081 199.877 60.049C200.588 59.7437 201.023 60.4573 200.638 60.9618C197.853 64.5831 193.833 70.4914 189.551 77.0104C177.443 84.6082 166.343 97.2811 166.343 107.415C166.343 110.352 166.848 114 169.383 114C171.355 114 180.988 95.6912 193.604 76.7183C199.064 73.9634 204.707 72.3602 209.709 72.3602C210.977 72.3602 211.199 73.2829 210.771 74.2355C209.301 77.5282 206.466 80.3662 206.466 80.3662C204.033 80.8209 201.135 83.2573 200.591 85.5343C200.286 86.8022 201.394 88.7772 202.822 88.7772C204.435 88.7772 210.343 82.3578 216.311 78.5871C217.556 77.8469 218.21 78.0261 216.65 79.709C214.927 81.5678 213.642 83.9311 215.435 85.4513C218.333 87.9109 222.223 83.5925 224.755 81.2624C225.336 80.728 226.106 80.2832 225.768 81.8366C225.429 83.39 225.429 84.6049 226.375 85.3484C228.984 87.3997 233.97 83.005 237.574 80.2135C238.129 79.8484 238.381 79.9812 237.926 80.7446C237.402 81.6209 235.546 85.043 236.914 85.8894C239.977 87.7881 246.49 82.1918 252.01 77.0237C252.564 76.5026 253.072 76.8212 252.667 77.4287C249.331 82.4341 251.147 88.3191 258.021 88.3191C268.895 88.3191 285.242 79.2011 305.37 71.7029L304.829 71.0258V71.0291ZM169.685 108.231C169.178 109.041 168.769 108.331 168.822 107.724C169.749 97.1948 177.645 87.1607 187.278 80.489C180.294 91.2334 173.078 102.798 169.682 108.228L169.685 108.231Z" fill="#252523"/>
</svg>
