<svg width="25" height="25" viewBox="0 0 25 25" fill="none" xmlns="http://www.w3.org/2000/svg">
<path d="M8.17864 8.97626H9.77389M14.5596 15.3573H16.1549M16.1549 8.17864L8.17864 16.1549M11.0524 1.46158L9.25133 3.26266C8.9558 3.55819 8.55494 3.72424 8.13698 3.72424H5.30018C4.42981 3.72424 3.72424 4.42981 3.72424 5.30018V8.13698C3.72424 8.55494 3.55819 8.9558 3.26266 9.25133L1.46158 11.0524C0.846139 11.6679 0.846139 12.6657 1.46158 13.2811L3.26266 15.0822C3.55819 15.3777 3.72424 15.7786 3.72424 16.1965V19.0334C3.72424 19.9037 4.42981 20.6093 5.30018 20.6093H8.13698C8.55494 20.6093 8.9558 20.7754 9.25133 21.0708L11.0524 22.872C11.6679 23.4873 12.6657 23.4873 13.2811 22.872L15.0822 21.0708C15.3777 20.7754 15.7786 20.6093 16.1965 20.6093H19.0334C19.9037 20.6093 20.6093 19.9037 20.6093 19.0334V16.1965C20.6093 15.7786 20.7754 15.3777 21.0708 15.0822L22.872 13.2811C23.4873 12.6657 23.4873 11.6679 22.872 11.0524L21.0708 9.25133C20.7754 8.9558 20.6093 8.55494 20.6093 8.13698V5.30018C20.6093 4.42981 19.9037 3.72424 19.0334 3.72424H16.1965C15.7786 3.72424 15.3777 3.55819 15.0822 3.26266L13.2811 1.46158C12.6657 0.846139 11.6679 0.846139 11.0524 1.46158Z" stroke="black" stroke-width="2"/>
</svg>
