<svg width="29" height="25" viewBox="0 0 29 25" fill="none" xmlns="http://www.w3.org/2000/svg">
<path d="M25.0853 1.6654C23.7717 0.594797 22.0847 0.00643769 20.336 0.00643769C18.3163 0.00643769 16.3611 0.797598 14.9728 2.17948C14.7232 2.42826 14.4892 2.69532 14.2696 2.98537C12.5694 0.75633 9.72859 -0.387373 6.9189 0.11845C4.58736 0.535254 2.75433 1.79746 1.47426 3.86732C-0.331844 6.78966 -0.479659 9.60824 1.0374 12.2452C1.84829 13.656 2.90035 15.0308 4.25403 16.4481C6.73338 19.0444 9.66815 21.5087 13.4904 24.2005C13.7346 24.3732 13.9961 24.4605 14.269 24.4605C14.6891 24.4605 14.9728 24.2512 15.1134 24.1486C18.5622 21.7227 21.2714 19.4865 23.64 17.1078C24.9626 15.7801 26.4635 14.1483 27.561 12.1102C28.0314 11.2395 28.5676 10.0675 28.5359 8.72865C28.4653 5.84758 27.3049 3.47115 25.0853 1.6654ZM25.7645 11.1705C24.7872 12.9828 23.4084 14.4784 22.1876 15.7035C19.9973 17.9036 17.4928 19.9859 14.2654 22.2815C10.7531 19.7784 8.0344 17.4798 5.73637 15.0721C4.4958 13.7733 3.53769 12.5253 2.80699 11.2548C1.6502 9.2445 1.77887 7.2271 3.21274 4.90904C4.17743 3.34794 5.54667 2.39878 7.28335 2.0881C7.61609 2.02796 7.95301 1.99849 8.28515 1.99849C10.3438 1.99849 12.1673 3.11861 13.1972 5.0635L13.3719 5.38833C13.5515 5.72024 13.9213 5.90889 14.2863 5.91774C14.6687 5.91066 15.014 5.69548 15.1822 5.35709C15.5437 4.63078 15.938 4.06718 16.4192 3.58729C17.4282 2.58449 18.8555 2.00851 20.336 2.00851C21.6125 2.00851 22.8387 2.43475 23.7896 3.2094C25.5586 4.64846 26.4455 6.47013 26.5024 8.77405C26.5221 9.64362 26.1409 10.4725 25.7645 11.1705Z" fill="#9A9A9A"/>
</svg>
